# xmcd
#
# Track frame offsets:
#	150
#	22270
#	39931
#	49142
#	70512
#	88997
#	108808
#	124119
#	135560
#	150722
#	170399
#	178847
#
# Disc length: 2518 seconds
#
# Revision: 0
# Processed by: cddbd v1.5.2PL0 Copyright (c) Steve Scherf et al.
# Submitted via: EasyCDDAExtractor 12.0.1.1
#
DISCID=9c09d40c
DTITLE=Bill Mumy - Speechless
DYEAR=2009
DGENRE=Blues
TTITLE0=Depth of Feel
TTITLE1=Pardon Me Asking
TTITLE2=Even Where the Wind Won't Blow
TTITLE3=Come Stay With Me in My Hole in the Ground
TTITLE4=Caught My Shadow
TTITLE5=Barns
TTITLE6=Winter Soldier Watching
TTITLE7=Speechless
TTITLE8=Wish It Away
TTITLE9=Night For Day
TTITLE10=If We Have Another Day Tomorrow
TTITLE11=When I'm Missing You
EXTD=
EXTT0=
EXTT1=
EXTT2=
EXTT3=
EXTT4=
EXTT5=
EXTT6=
EXTT7=
EXTT8=
EXTT9=
EXTT10=
EXTT11=
PLAYORDER=
